<svg width="25" height="25" viewBox="0 0 25 25" fill="none" xmlns="http://www.w3.org/2000/svg">
<path d="M23.2786 21.9111L23.2782 21.9108L20.1858 18.8248C21.8187 16.8849 22.8044 14.381 22.8044 11.6516C22.8044 5.50168 17.8027 0.5 11.6527 0.5C5.50284 0.5 0.5 5.50161 0.5 11.6516C0.5 17.8016 5.50277 22.8044 11.6527 22.8044C14.1223 22.8044 16.4074 21.9972 18.2569 20.6336L21.4125 23.7804L21.4132 23.7811C21.6711 24.0372 22.0092 24.1659 22.3453 24.1659C22.681 24.1659 23.0222 24.0381 23.2809 23.7765C23.7963 23.2598 23.7931 22.4256 23.2786 21.9111ZM3.14073 11.6516C3.14073 6.95863 6.95957 3.14073 11.6527 3.14073C16.3448 3.14073 20.1637 6.95859 20.1637 11.6516C20.1637 16.3448 16.3447 20.1637 11.6527 20.1637C6.95965 20.1637 3.14073 16.3447 3.14073 11.6516Z" fill="white" stroke="white"/>
</svg>
